<?xml version="1.0" encoding="UTF-8"?>
<svg id="Capa_1" data-name="Capa 1" xmlns="http://www.w3.org/2000/svg" xmlns:xlink="http://www.w3.org/1999/xlink" viewBox="0 0 300 300">
  <defs>
    <style>
      .cls-1 {
        fill: none;
      }

      .cls-2 {
        fill: #1a4e9e;
      }

      .cls-3 {
        fill: #e40523;
      }

      .cls-4 {
        fill: #ffd004;
      }

      .cls-5 {
        fill: #e4051e;
      }

      .cls-6 {
        clip-path: url(#clippath-1);
      }

      .cls-7 {
        clip-path: url(#clippath-2);
      }

      .cls-8 {
        fill: #fff;
      }

      .cls-9 {
        fill: #16428c;
      }

      .cls-10 {
        clip-path: url(#clippath);
      }
    </style>
    <clipPath id="clippath">
      <circle class="cls-1" cx="470" cy="150" r="125.7"/>
    </clipPath>
    <clipPath id="clippath-1">
      <circle class="cls-1" cx="150" cy="150" r="125.7"/>
    </clipPath>
    <clipPath id="clippath-2">
      <circle class="cls-1" cx="-170" cy="150" r="125.7"/>
    </clipPath>
  </defs>
  <g class="cls-10">
    <g>
      <path class="cls-3" d="M276.22,249.19c0,16.03,12.99,29.02,29.02,29.02h329.5c16.03,0,29.02-12.99,29.02-29.02v-34.45h-387.55v34.45Z"/>
      <path class="cls-4" d="M634.75,24.3h-329.5c-16.03,0-29.02,12.99-29.02,29.02v97.93h387.55V53.32c0-16.03-12.99-29.02-29.02-29.02Z"/>
      <rect class="cls-9" x="276.22" y="151.26" width="387.55" height="63.48"/>
    </g>
  </g>
  <g class="cls-6">
    <circle class="cls-2" cx="150" cy="150" r="125.7"/>
    <rect class="cls-8" x="-171.91" y="65.72" width="639.23" height="168.55"/>
    <rect class="cls-5" x="-38.04" y="101.02" width="371.48" height="97.95"/>
  </g>
  <g class="cls-7">
    <g>
      <path class="cls-3" d="M-363.78,249.19c0,16.03,12.99,29.02,29.02,29.02H-5.25c16.03,0,29.02-12.99,29.02-29.02v-34.45h-387.55v34.45Z"/>
      <path class="cls-4" d="M-5.25,24.3h-329.5c-16.03,0-29.02,12.99-29.02,29.02v97.93H23.78V53.32c0-16.03-12.99-29.02-29.02-29.02Z"/>
      <rect class="cls-9" x="-363.78" y="151.26" width="387.55" height="63.48"/>
    </g>
  </g>
</svg>