<?xml version="1.0" encoding="UTF-8"?>
<svg id="Capa_1" data-name="Capa 1" xmlns="http://www.w3.org/2000/svg" xmlns:xlink="http://www.w3.org/1999/xlink" viewBox="0 0 300 300">
  <defs>
    <style>
      .cls-1 {
        fill: none;
      }

      .cls-2 {
        fill: #1199d6;
      }

      .cls-3 {
        fill: #e40523;
      }

      .cls-4 {
        fill: #518341;
      }

      .cls-5 {
        fill: #ffd004;
      }

      .cls-6 {
        fill: #fff;
      }

      .cls-7 {
        fill: #fff2bc;
      }

      .cls-8 {
        fill: #16428c;
      }

      .cls-9 {
        clip-path: url(#clippath);
      }
    </style>
    <clipPath id="clippath">
      <circle class="cls-1" cx="-170" cy="150" r="125.7"/>
    </clipPath>
  </defs>
  <g class="cls-9">
    <g>
      <path class="cls-3" d="M-363.78,249.19c0,16.03,12.99,29.02,29.02,29.02H-5.25c16.03,0,29.02-12.99,29.02-29.02v-34.45h-387.55v34.45Z"/>
      <path class="cls-5" d="M-5.25,24.3h-329.5c-16.03,0-29.02,12.99-29.02,29.02v97.93H23.78V53.32c0-16.03-12.99-29.02-29.02-29.02Z"/>
      <rect class="cls-8" x="-363.78" y="151.26" width="387.55" height="63.48"/>
    </g>
  </g>
  <g>
    <g>
      <path class="cls-2" d="M275.7,150c0-46.53-25.28-87.15-62.85-108.88v217.76c37.57-21.73,62.85-62.35,62.85-108.88Z"/>
      <path class="cls-2" d="M24.3,150c0,46.53,25.28,87.15,62.85,108.88V41.12c-37.57,21.73-62.85,62.35-62.85,108.88Z"/>
      <path class="cls-6" d="M150,24.3c-22.9,0-44.36,6.12-62.85,16.82v217.76c18.49,10.7,39.95,16.82,62.85,16.82s44.36-6.12,62.85-16.82V41.12c-18.49-10.7-39.95-16.82-62.85-16.82Z"/>
    </g>
    <circle class="cls-1" cx="150" cy="150" r="125.7"/>
    <g>
      <path class="cls-4" d="M168.7,129.17c-2.54,2.54-2.54,6.66,0,9.2,1.59,1.59,2.93,3.33,4.02,5.17,4.94,8.3,4.94,18.75,0,27.05-1.1,1.85-2.44,3.59-4.02,5.17-1.59,1.59-3.33,2.93-5.17,4.03-8.3,4.94-18.75,4.94-27.06,0-1.85-1.1-3.59-2.44-5.17-4.03-1.59-1.59-2.93-3.33-4.02-5.17-4.94-8.3-4.94-18.75,0-27.05,1.1-1.85,2.44-3.59,4.02-5.17,2.54-2.54,2.54-6.66,0-9.2-2.54-2.54-6.66-2.54-9.2,0-15.38,15.38-15.38,40.41,0,55.79,7.45,7.45,17.36,11.55,27.9,11.55s20.45-4.1,27.9-11.55c15.38-15.38,15.38-40.41,0-55.79-2.54-2.54-6.66-2.54-9.2,0Z"/>
      <rect class="cls-7" x="139.14" y="144.25" width="21.8" height="27.12"/>
    </g>
  </g>
</svg>