<?xml version="1.0" encoding="UTF-8"?>
<svg id="Capa_1" data-name="Capa 1" xmlns="http://www.w3.org/2000/svg" xmlns:xlink="http://www.w3.org/1999/xlink" viewBox="0 0 300 300">
  <defs>
    <style>
      .cls-1 {
        fill: none;
      }

      .cls-2 {
        fill: #9d713e;
      }

      .cls-3 {
        fill: #e40523;
      }

      .cls-4 {
        fill: #ffd004;
      }

      .cls-5 {
        fill: #e4051e;
      }

      .cls-6 {
        clip-path: url(#clippath-1);
      }

      .cls-7 {
        fill: #fff;
      }

      .cls-8 {
        fill: #16428c;
      }

      .cls-9 {
        fill: #a8bad8;
      }

      .cls-10 {
        clip-path: url(#clippath);
      }
    </style>
    <clipPath id="clippath">
      <circle class="cls-1" cx="150" cy="150" r="125.7"/>
    </clipPath>
    <clipPath id="clippath-1">
      <circle class="cls-1" cx="-170" cy="150" r="125.7"/>
    </clipPath>
  </defs>
  <g class="cls-10">
    <g>
      <g>
        <path class="cls-3" d="M-43.78,249.19c0,16.03,12.99,29.02,29.02,29.02h329.5c16.03,0,29.02-12.99,29.02-29.02v-34.45H-43.78v34.45Z"/>
        <path class="cls-4" d="M314.75,24.3H-14.75c-16.03,0-29.02,12.99-29.02,29.02v97.93h387.55V53.32c0-16.03-12.99-29.02-29.02-29.02Z"/>
        <rect class="cls-8" x="-43.78" y="151.26" width="387.55" height="63.48"/>
      </g>
      <g>
        <g>
          <path class="cls-2" d="M143.03,103.88s4.65-22.08-11.62-19.17c-16.27,2.91-16.27,7.55-34.86,16.85,0,0,20.92,4.65,30.21,2.32,0,0,6.97,9.3,13.95,11.62h6.97l-4.65-11.62Z"/>
          <path class="cls-2" d="M156.97,103.88s-4.65-22.08,11.62-19.17c16.27,2.91,16.27,7.55,34.86,16.85,0,0-20.92,4.65-30.21,2.32,0,0-6.97,9.3-13.95,11.62h-6.97l4.65-11.62Z"/>
          <path class="cls-2" d="M156.97,115.5h-13.95v-11.71c0-3.8,3.08-6.89,6.89-6.89h.17c3.8,0,6.89,3.08,6.89,6.89v11.71h0Z"/>
        </g>
        <path class="cls-9" d="M150,187.54c-14.1,0-25.57-16.68-25.57-37.19s11.47-37.19,25.57-37.19,25.57,16.68,25.57,37.19-11.47,37.19-25.57,37.19Z"/>
      </g>
    </g>
  </g>
  <g class="cls-6">
    <rect class="cls-7" x="-491.91" y="65.72" width="639.23" height="168.55"/>
    <rect class="cls-5" x="-358.04" y="101.02" width="371.48" height="97.95"/>
  </g>
</svg>