<?xml version="1.0" encoding="UTF-8"?>
<svg id="Capa_1" data-name="Capa 1" xmlns="http://www.w3.org/2000/svg" xmlns:xlink="http://www.w3.org/1999/xlink" viewBox="0 0 300 300">
  <defs>
    <style>
      .cls-1 {
        fill: none;
      }

      .cls-2 {
        fill: #e40523;
      }

      .cls-3 {
        fill: #ffd004;
      }

      .cls-4 {
        clip-path: url(#clippath-1);
      }

      .cls-5 {
        clip-path: url(#clippath-2);
      }

      .cls-6 {
        fill: #fff;
      }

      .cls-7 {
        fill: #0e4597;
      }

      .cls-8 {
        fill: #e4101c;
      }

      .cls-9 {
        fill: #16428c;
      }

      .cls-10 {
        clip-path: url(#clippath);
      }
    </style>
    <clipPath id="clippath">
      <circle class="cls-1" cx="470" cy="150" r="125.7"/>
    </clipPath>
    <clipPath id="clippath-1">
      <circle class="cls-1" cx="150" cy="150" r="125.7"/>
    </clipPath>
    <clipPath id="clippath-2">
      <rect class="cls-1" x="-9.06" y="25.5" width="476.58" height="250.2"/>
    </clipPath>
  </defs>
  <g class="cls-10">
    <g>
      <path class="cls-2" d="M276.22,249.19c0,16.03,12.99,29.02,29.02,29.02h329.5c16.03,0,29.02-12.99,29.02-29.02v-34.45h-387.55v34.45Z"/>
      <path class="cls-3" d="M634.75,24.3h-329.5c-16.03,0-29.02,12.99-29.02,29.02v97.93h387.55V53.32c0-16.03-12.99-29.02-29.02-29.02Z"/>
      <rect class="cls-9" x="276.22" y="151.26" width="387.55" height="63.48"/>
    </g>
  </g>
  <g class="cls-4">
    <g id="Chile">
      <g class="cls-5">
        <rect class="cls-6" x="38.62" y="7.49" width="428.9" height="268.21"/>
        <rect class="cls-7" x="-.89" y="7.49" width="164.59" height="268.21"/>
        <rect class="cls-8" x="-9.06" y="150.6" width="476.58" height="125.1"/>
        <polygon class="cls-6" points="101.16 56.77 91.5 86.52 106.37 91.35 101.16 56.77"/>
        <polygon class="cls-6" points="101.16 56.77 110.83 86.52 95.96 91.35 101.16 56.77"/>
        <polygon class="cls-6" points="130.91 78.39 99.63 78.39 99.63 94.02 130.91 78.39"/>
        <polygon class="cls-6" points="130.91 78.39 105.6 96.78 96.41 84.12 130.91 78.39"/>
        <polygon class="cls-6" points="71.42 78.39 96.72 96.78 105.92 84.12 71.42 78.39"/>
        <polygon class="cls-6" points="71.42 78.39 102.69 78.39 102.69 94.02 71.42 78.39"/>
        <polygon class="cls-6" points="119.54 113.35 109.88 83.61 95.01 88.45 119.54 113.35"/>
        <polygon class="cls-6" points="119.54 113.35 94.24 94.97 103.44 82.33 119.54 113.35"/>
        <polygon class="cls-6" points="82.78 113.35 108.08 94.97 98.89 82.33 82.78 113.35"/>
        <polygon class="cls-6" points="82.78 113.35 92.44 83.61 107.31 88.45 82.78 113.35"/>
      </g>
    </g>
  </g>
</svg>